<svg xmlns="http://www.w3.org/2000/svg" width="106.229" height="122.88" viewBox="0 0 106.229 122.88">
  <g id="technologies_ic15" transform="translate(0 0.001)">
    <path id="Path_150359" data-name="Path 150359" d="M86.289,39c0-11-6.33-20.66-15.79-26l5.23-9.43A2.37,2.37,0,0,0,74.8.3h0a2.37,2.37,0,0,0-3.22.92l-5.36,9.68a35.84,35.84,0,0,0-26.2,0L34.65,1.22A2.36,2.36,0,0,0,31.43.3h0a2.36,2.36,0,0,0-.92,3.22L35.74,13C26.27,18.34,20,28,20,39Zm11.2,0h0a8.74,8.74,0,0,1,8.74,8.75v31a8.74,8.74,0,0,1-8.74,8.75h0a8.75,8.75,0,0,1-8.75-8.75v-31A8.75,8.75,0,0,1,97.489,39ZM8.75,39h0a8.75,8.75,0,0,1,8.75,8.75v31A8.75,8.75,0,0,1,8.75,87.5h0A8.75,8.75,0,0,1,0,78.769v-31A8.75,8.75,0,0,1,8.75,39ZM49.47,97.729v16.4a8.75,8.75,0,0,1-8.75,8.75h0a8.74,8.74,0,0,1-8.72-8.75v-16.4H28a8,8,0,0,1-8-8V41.63H86.289v48.08a8,8,0,0,1-8,8h-4v16.4a8.75,8.75,0,0,1-8.75,8.75h0a8.75,8.75,0,0,1-8.75-8.75V97.729Z" transform="translate(0 0)" fill="#a4c639"/>
    <path id="Path_150360" data-name="Path 150360" d="M39.26,24.09a1.45,1.45,0,1,0-.421,1.032A1.46,1.46,0,0,0,39.26,24.09Z" transform="translate(0 0)" fill="#fff"/>
    <path id="Path_150361" data-name="Path 150361" d="M38,24.09a.15.15,0,0,0,0-.1h0a.116.116,0,0,0-.21.1.14.14,0,0,0,.15.15.18.18,0,0,0,.1,0,.15.15,0,0,0,0-.11Zm1.81-2h0A2.768,2.768,0,0,1,35.89,26h0a2.77,2.77,0,1,1,3.91-3.92Z" transform="translate(0 0)" fill="#fff"/>
    <path id="Path_150362" data-name="Path 150362" d="M69.89,24.09a1.46,1.46,0,1,0-1.46,1.46,1.46,1.46,0,0,0,1.46-1.46Z" transform="translate(-0.001 0)" fill="#fff"/>
    <path id="Path_150363" data-name="Path 150363" d="M68.57,24.09a.15.15,0,0,0,0-.1h0a.116.116,0,1,0-.21.1.14.14,0,0,0,.15.15.18.18,0,0,0,.1,0,.15.15,0,0,0,0-.11Zm1.81-2h0A2.77,2.77,0,0,1,66.46,26h0a2.77,2.77,0,1,1,3.91-3.92Z" transform="translate(-0.001 0)" fill="#fff"/>
  </g>
</svg>
