<svg xmlns="http://www.w3.org/2000/svg" width="123" height="123" viewBox="0 0 123 123">
  <g id="technologies_ic20" transform="translate(-261 -15004)">
    <rect id="Rectangle_9209" data-name="Rectangle 9209" width="123" height="123" rx="8" transform="translate(261 15004)" fill="#512bd4" opacity="0"/>
    <g id="docker-icon" transform="translate(261.017 15021)">
      <path id="Path_150372" data-name="Path 150372" d="M121.812,33.376c-.34-.28-3.424-2.623-10.041-2.623a31.415,31.415,0,0,0-5.2.461c-1.251-8.729-8.5-12.954-8.79-13.174l-1.772-1.031L94.873,18.66a24.326,24.326,0,0,0-3.133,7.3,17.31,17.31,0,0,0,2.052,13.635c-3.023,1.712-7.929,2.112-8.96,2.172H3.814A3.824,3.824,0,0,0-.01,45.589,57.814,57.814,0,0,0,3.524,66.412c2.793,7.3,6.958,12.724,12.323,16.027,6.047,3.7,15.917,5.816,27.039,5.816a83.186,83.186,0,0,0,15.006-1.371,61.848,61.848,0,0,0,19.621-7.128A53.777,53.777,0,0,0,90.869,68.8c6.447-7.248,10.271-15.347,13.064-22.534h1.141c7.018,0,11.352-2.793,13.745-5.2a15.223,15.223,0,0,0,3.654-5.366l.511-1.482-1.171-.851ZM71.668,39.423H82.509a.965.965,0,0,0,.971-.971v-9.7a.965.965,0,0,0-.971-.971H71.668a.965.965,0,0,0-.971.971h0v9.7a1,1,0,0,0,.971.971ZM56.551,11.643H67.393a.965.965,0,0,0,.971-.971V.971A1.006,1.006,0,0,0,67.393,0H56.551a.965.965,0,0,0-.971.971h0v9.7a1,1,0,0,0,.971.971Zm0,13.915H67.393a1.006,1.006,0,0,0,.971-.971v-9.7a1.006,1.006,0,0,0-.971-.971H56.551a.965.965,0,0,0-.971.971h0v9.7a.992.992,0,0,0,.971.971Zm-15.006,0H52.387a1.006,1.006,0,0,0,.971-.971v-9.7a.965.965,0,0,0-.971-.971H41.545a.965.965,0,0,0-.971.971h0v9.7a.959.959,0,0,0,.971.971Zm-15.237,0H37.15a1.006,1.006,0,0,0,.971-.971v-9.7a.965.965,0,0,0-.971-.971H26.309a.965.965,0,0,0-.971.971v9.7a1.044,1.044,0,0,0,.971.971ZM56.551,39.423H67.393a.965.965,0,0,0,.971-.971v-9.7a.965.965,0,0,0-.971-.971H56.551a.965.965,0,0,0-.971.971h0v9.7a.959.959,0,0,0,.971.971Zm-15.006,0H52.387a.965.965,0,0,0,.971-.971h0v-9.7a.965.965,0,0,0-.971-.971H41.545a.965.965,0,0,0-.971.971h0v9.7a.93.93,0,0,0,.971.971Zm-15.237,0H37.15a.965.965,0,0,0,.971-.971h0v-9.7a.965.965,0,0,0-.971-.971H26.309a.965.965,0,0,0-.971.971v9.7a1,1,0,0,0,.971.971Zm-14.946,0H22.2a.965.965,0,0,0,.971-.971h0v-9.7a.965.965,0,0,0-.971-.971H11.362a.965.965,0,0,0-.971.971h0v9.7a1,1,0,0,0,.971.971Z" transform="translate(0)" fill="#0091e2"/>
    </g>
  </g>
</svg>
