<svg xmlns="http://www.w3.org/2000/svg" width="153.005" height="123" viewBox="0 0 153.005 123">
  <g id="technologies_ic32" transform="translate(0)">
    <path id="Path_150395" data-name="Path 150395" d="M114.114,33.959l13.3-13.3.886-5.6C104.064-6.979,65.537-4.48,43.689,20.273a61.477,61.477,0,0,0-12.972,24.3L35.48,43.9l26.6-4.386,2.054-2.1a33.32,33.32,0,0,1,45.5-3.686Z" transform="translate(-12.358 0)" fill="#ea4335"/>
    <path id="Path_150396" data-name="Path 150396" d="M183.085,54.316a59.916,59.916,0,0,0-18.06-29.12L146.358,43.863a33.18,33.18,0,0,1,12.18,26.32V73.5a16.52,16.52,0,1,1,0,33.04H125.265L122,110.083v19.926l3.267,3.126h33.273a43.092,43.092,0,0,0,24.547-78.82" transform="translate(-49.083 -10.137)" fill="#4285f4"/>
    <path id="Path_150397" data-name="Path 150397" d="M54.31,186.885H87.536v-26.6H54.31a16.3,16.3,0,0,1-6.813-1.493l-4.714,1.446-13.393,13.3-1.167,4.527a43.118,43.118,0,0,0,26.087,8.82" transform="translate(-11.355 -63.886)" fill="#34a853"/>
    <path id="Path_150398" data-name="Path 150398" d="M42.955,61.425a43.213,43.213,0,0,0-26.087,77.466l19.274-19.273a16.613,16.613,0,1,1,21.98-21.98L77.4,78.365a43.166,43.166,0,0,0-34.44-16.94" transform="translate(0 -24.713)" fill="#fbbc05"/>
  </g>
</svg>
