<svg id="technologies_ic1" xmlns="http://www.w3.org/2000/svg" width="108.35" height="122.88" viewBox="0 0 108.35 122.88">
  <path id="Path_144188" data-name="Path 144188" d="M108.35,0,98.48,110.58l-44.37,12.3L9.86,110.6,0,0Z" fill="#e44d26" fill-rule="evenodd"/>
  <path id="Path_144189" data-name="Path 144189" d="M54.17,113.48l35.86-9.94,8.43-94.5H54.17Z" fill="#f16529" fill-rule="evenodd"/>
  <path id="Path_144190" data-name="Path 144190" d="M34.99,36.17H54.18V22.61H20.16l.32,3.64,3.33,37.38H54.16V50.06H36.23L34.99,36.17Zm3.05,34.24H24.43l1.9,21.3,27.79,7.71.06-.02V85.29l-.06.02L39.01,81.23l-.97-10.82Z" fill="#ebebeb" fill-rule="evenodd"/>
  <path id="Path_144191" data-name="Path 144191" d="M54.13,63.63h16.7L69.26,81.22,54.13,85.3V99.41L81.94,91.7l.2-2.29L85.33,53.7l.33-3.64H54.13V63.63Zm0-27.49v.03H86.89l.27-3.05.62-6.88.32-3.64H54.13V36.14Z" fill="#fff" fill-rule="evenodd"/>
</svg>
