<svg xmlns="http://www.w3.org/2000/svg" width="100.042" height="122.881" viewBox="0 0 100.042 122.881">
  <path id="technologies_ic14" d="M143.034,65.261C142.88,49.7,155.721,42.24,156.3,41.87c-7.218-10.558-18.463-12.009-22.47-12.172-9.569-.966-18.669,5.637-23.531,5.637s-12.34-5.492-20.275-5.347A30.077,30.077,0,0,0,64.6,45.394c-10.835,18.8-2.771,46.66,7.789,61.9,5.159,7.465,11.311,15.851,19.39,15.551,7.778-.306,10.721-5.039,20.13-5.039s12.048,5.039,20.282,4.878c8.372-.154,13.676-7.61,18.8-15.1a67.737,67.737,0,0,0,8.508-17.47c-.186-.084-16.325-6.265-16.488-24.851l.023-.007ZM127.569,19.6c4.286-5.2,7.182-12.417,6.39-19.622-6.175.252-13.662,4.116-18.1,9.309-3.98,4.61-7.456,11.957-6.526,19.014,6.9.538,13.937-3.5,18.225-8.692l.007-.009Z" transform="translate(-59.457 0.024)" fill="#e4e4e4" fill-rule="evenodd"/>
</svg>
