<svg xmlns="http://www.w3.org/2000/svg" width="90.645" height="123" viewBox="0 0 90.645 123">
  <g id="technologies_ic10" transform="translate(0.013)">
    <path id="Path_150339" data-name="Path 150339" d="M29.19,95.03s-4.7,2.73,3.34,3.65c9.74,1.11,14.71.95,25.441-1.08a44.046,44.046,0,0,0,6.76,3.3c-24.051,10.32-54.441-.59-35.541-5.87Z" transform="translate(0.001 0.122)" fill="#5382a1" fill-rule="evenodd"/>
    <path id="Path_150340" data-name="Path 150340" d="M26.25,81.58s-5.27,3.9,2.78,4.73c10.4,1.07,18.62,1.16,32.831-1.58a14.637,14.637,0,0,0,5.06,3.08C37.83,96.32,5.43,88.48,26.25,81.58Z" transform="translate(0 0.089)" fill="#5382a1" fill-rule="evenodd"/>
    <path id="Path_150341" data-name="Path 150341" d="M51.03,58.761c5.93,6.82-1.56,12.96-1.56,12.96s15.05-7.77,8.14-17.5C51.15,45.15,46.2,40.64,73,25.1c0,0-42.061,10.5-21.97,33.661Z" transform="translate(0.001 0.04)" fill="#e76f00" fill-rule="evenodd"/>
    <path id="Path_150342" data-name="Path 150342" d="M82.842,104.98s3.47,2.86-3.83,5.08c-13.88,4.21-57.791,5.48-69.992.17-4.38-1.91,3.84-4.55,6.42-5.11a16.552,16.552,0,0,1,4.24-.48c-4.88-3.43-31.521,6.74-13.53,9.66,49.051,7.95,89.412-3.58,76.692-9.32Z" transform="translate(0 0.122)" fill="#5382a1" fill-rule="evenodd"/>
    <path id="Path_150343" data-name="Path 150343" d="M31.45,67.64s-22.33,5.3-7.91,7.23c6.09.82,18.23.63,29.541-.32,9.24-.78,18.52-2.44,18.52-2.44a39.529,39.529,0,0,0-5.62,3.01C43.3,81.08-.51,78.31,12.1,72.21c10.67-5.16,19.35-4.57,19.35-4.57Z" transform="translate(0 0.074)" fill="#5382a1" fill-rule="evenodd"/>
    <path id="Path_150344" data-name="Path 150344" d="M71.51,90.031C94.561,78.05,83.9,66.54,76.46,68.09a17.488,17.488,0,0,0-2.64.71,4.227,4.227,0,0,1,1.97-1.52c14.72-5.17,26.041,15.26-4.75,23.361a1.881,1.881,0,0,0,.47-.61Z" transform="translate(0.002 0.082)" fill="#5382a1" fill-rule="evenodd"/>
    <path id="Path_150345" data-name="Path 150345" d="M57.611,0S70.381,12.77,45.5,32.411c-19.95,15.75-4.55,24.741-.01,35-11.64-10.5-20.19-19.75-14.46-28.361C39.45,26.411,62.761,20.29,57.611,0Z" transform="translate(0.001)" fill="#e76f00" fill-rule="evenodd"/>
    <path id="Path_150346" data-name="Path 150346" d="M33.71,122.49c22.13,1.42,56.111-.79,56.921-11.26,0,0-1.55,3.97-18.29,7.12-18.89,3.55-42.181,3.14-56,.86,0,.01,2.83,2.35,17.37,3.28Z" transform="translate(0 0.123)" fill="#5382a1" fill-rule="evenodd"/>
  </g>
</svg>
