<svg xmlns="http://www.w3.org/2000/svg" width="125.734" height="122.877" viewBox="0 0 125.734 122.877">
  <path id="technologies_ic8" d="M124.728,81.242c-1.961,2.1-4.523.3-4.523.3L62.918,19.985,125.18,77.039A3.316,3.316,0,0,1,124.728,81.242Zm-6.4-19.947L92.357,33.31l28.427,25.873a1.494,1.494,0,0,1-.226,1.971,1.8,1.8,0,0,1-2.235.142Zm4.244,37.122c-2.805,3.011-6.471.434-6.471.434l-82-88.106,89.123,81.676A4.722,4.722,0,0,1,122.567,98.417Zm-8.424,14.836c-2.805,3.008-6.476.429-6.476.429L0,0,114.8,107.234A4.75,4.75,0,0,1,114.143,113.253Zm-15.536,8.165c-2.805,3.008-6.476.431-6.476.431L10.146,33.736l89.118,81.676a4.738,4.738,0,0,1-.647,6.006Zm-18.77.226c-1.961,2.1-4.523.3-4.523.3L18.035,60.387,80.3,117.441a3.322,3.322,0,0,1-.454,4.2ZM60.559,116.6a1.816,1.816,0,0,1-2.237.14L32.371,88.755,60.8,114.628a1.494,1.494,0,0,1-.223,1.971Z" fill="#ff6a3e" fill-rule="evenodd"/>
</svg>
