<svg xmlns="http://www.w3.org/2000/svg" width="123" height="123" viewBox="0 0 123 123">
  <g id="technologies_ic9" transform="translate(-267 -15004)">
    <rect id="Rectangle_9209" data-name="Rectangle 9209" width="123" height="123" rx="8" transform="translate(267 15004)" fill="#512bd4"/>
    <path id="Path_150338" data-name="Path 150338" d="M81.218,224.1A3.1,3.1,0,0,1,79,223.233a2.936,2.936,0,0,1,0-4.253,3.227,3.227,0,0,1,4.453,0,2.888,2.888,0,0,1,0,4.253A3.121,3.121,0,0,1,81.218,224.1Zm34.733-.49H110.3L95.424,200.138a10.5,10.5,0,0,1-.934-1.849h-.13a33.694,33.694,0,0,1,.174,4.387v20.935h-5V191.675h6.017l14.38,22.917q.912,1.426,1.173,1.96h.087a29.094,29.094,0,0,1-.217-4.3V191.675h4.974Zm24.328,0H122.794V191.675h16.79v4.5H127.963v9.042h10.709v4.476H127.963v9.443h12.316v4.476Zm24.85-27.438H156.18v27.438h-5.17V196.174h-8.927v-4.5H165.13Z" transform="translate(208.009 14858.405)" fill="#fff"/>
  </g>
</svg>
