<svg xmlns="http://www.w3.org/2000/svg" width="124" height="123" viewBox="0 0 124 123">
  <g id="technologies_ic12" transform="translate(-1203 -15004)">
    <g id="technologies_ic9" transform="translate(936)" opacity="0">
      <rect id="Rectangle_9209" data-name="Rectangle 9209" width="123" height="123" rx="8" transform="translate(267 15004)" fill="#512bd4"/>
    </g>
    <g id="Group_41156" data-name="Group 41156" transform="translate(-10 -4.135)">
      <rect id="Rectangle_9214" data-name="Rectangle 9214" width="124" height="51" rx="25.5" transform="translate(1213 15042.135)" fill="#fff"/>
      <g id="php-programming-language-icon" transform="translate(1230.885 15046.77)">
        <path id="Path_150350" data-name="Path 150350" d="M94.838,23.1q4.176,0,5.558,1.536c.928,1.024,1.141,2.784.661,5.291-.5,2.6-1.483,4.459-2.923,5.568s-3.648,1.664-6.592,1.664H87.094l2.731-14.07h5.014ZM56.874,8.86h7.264L62.4,17.8h6.475q6.112,0,8.427,2.133t1.387,6.9l-3.04,15.638H68.266L71.157,27.6c.331-1.7.2-2.848-.363-3.456s-1.781-.928-3.648-.928h-5.8L57.6,42.472H50.335L56.874,8.86ZM37.705,23.1q4.176,0,5.558,1.536t.661,5.291c-.5,2.6-1.483,4.459-2.923,5.568s-3.648,1.664-6.592,1.664H29.961l2.731-14.07h5.014ZM19.87,51.4h7.318l1.739-8.939H35.2a22.267,22.267,0,0,0,6.827-.875A12.869,12.869,0,0,0,46.9,38.664a14.9,14.9,0,0,0,2.976-3.733,15.08,15.08,0,0,0,1.621-4.5q1.168-5.968-1.749-9.312c-1.941-2.219-5.035-3.339-9.27-3.339H26.4L19.87,51.4ZM77,51.4H84.32l1.739-8.939h6.272a22.267,22.267,0,0,0,6.827-.875,12.869,12.869,0,0,0,4.875-2.923,14.9,14.9,0,0,0,2.976-3.733,15.079,15.079,0,0,0,1.621-4.5q1.168-5.968-1.749-9.312c-1.941-2.219-5.035-3.339-9.27-3.339H83.531L77,51.4Z" transform="translate(-19.87 -8.86)" fill="#512bd4" fill-rule="evenodd"/>
      </g>
    </g>
  </g>
</svg>
