<svg xmlns="http://www.w3.org/2000/svg" width="135.044" height="122.881" viewBox="0 0 135.044 122.881">
  <g id="technologies_ic23" transform="translate(-2 -3.261)">
    <path id="Path_150374" data-name="Path 150374" d="M17.25,27.812V6.653l30.9,15.631V52.877L35.857,46.949V37.327L17.25,27.812" transform="translate(58.301 12.968)" fill="#4396b9"/>
    <path id="Path_150375" data-name="Path 150375" d="M43.361,15.953l8.006,4.095L21.185,35.139,21.108,15,33.4,20.93l9.964-4.977" transform="translate(73.05 44.89)" fill="#b8dde8"/>
    <path id="Path_150376" data-name="Path 150376" d="M27.236,8.407l-12.6,6.236,12.6,6.463V8.407" transform="translate(48.315 19.673)" fill="#75bed5"/>
    <path id="Path_150377" data-name="Path 150377" d="M63.561,70.669l-.256-30.481L32.655,24.909,2,9.774V40.7H2L2.294,70.65,31.936,85.471l.887.444.063.029,30.67,15.3V70.669h0" transform="translate(0 24.899)" fill="#4396b9"/>
    <path id="Path_150378" data-name="Path 150378" d="M75.835,27.675,45.575,42.8V13.013L14.708,27.781,14.973,58.9V88.855l30.592-15.3v-.169l30.269-15.1V27.67" transform="translate(48.583 37.282)" fill="#75bed5"/>
    <path id="Path_150379" data-name="Path 150379" d="M54.249,37.318,23.657,52.612V22.02l30.592-15.3V37.313" transform="translate(82.795 13.228)" fill="#75bed5"/>
    <path id="Path_150380" data-name="Path 150380" d="M75.551,19.621l30.9,15.631,30.6-15.3-31.2-15.959L84.753,14.87,62.085,3.261,31.3,19.278,2,34.673,32.655,49.813l30.65,15.255L94.173,50.3,62.953,34.316l-.4.207-.077-.039.482-.169,12.6-6.27V19.621" transform="translate(0 0)" fill="#b8dde8"/>
  </g>
</svg>
