<svg xmlns="http://www.w3.org/2000/svg" width="92.071" height="122.88" viewBox="0 0 92.071 122.88">
  <path id="technologies_ic24" d="M869.639,1066.786c-11.5-.829-22.871-3.724-29.843-7.6-3.971-2.208-7-4.921-8.184-7.339l-.706-1.438V960.151l.559-1.135c2.5-5.071,10.47-9.643,21.6-12.386a112.689,112.689,0,0,1,13.68-2.326,147.223,147.223,0,0,1,21.116.128c12.044,1.415,22.293,4.583,28.609,8.843a18.634,18.634,0,0,1,5.782,6.081l.726,1.551-.062,44.992-.062,44.992-.583,1.184a15.346,15.346,0,0,1-2.151,2.847c-5.252,5.567-16.517,9.686-31.293,11.441-3.012.358-16.1.647-19.186.424Zm21.2-38.669c-.044-.115-1.764-1.647-3.821-3.4s-3.829-3.277-3.938-3.378.272-.458.845-.794a14.669,14.669,0,0,0,2.439-2.076,13.938,13.938,0,0,0-.127-18.179c-2.309-2.331-4.96-3.332-8.821-3.332a11.829,11.829,0,0,0-11.98,9.1,19.146,19.146,0,0,0,.005,7.566,11.859,11.859,0,0,0,9.357,8.5,3.468,3.468,0,0,1,2.742,1.495c.611.668,1.866,2,2.788,2.965l1.676,1.75h4.456a22.406,22.406,0,0,0,4.376-.21Zm-15.284-12.478a4.03,4.03,0,0,1-2.09-2.237c-.473-.961-.553-1.507-.559-3.778-.005-2.307.068-2.806.562-3.808a4.051,4.051,0,0,1,3.641-2.54c2.4-.174,3.778,1,4.5,3.827.888,3.464-.088,7.146-2.22,8.369a4.369,4.369,0,0,1-3.835.167Zm-19.754,6.43c4.673-.886,7.325-3.6,7.325-7.5,0-3.461-1.712-5.477-6.445-7.59-2.709-1.21-3.691-1.969-3.691-2.856,0-.735.931-1.541,2.015-1.743a13.948,13.948,0,0,1,5.524.96l1.39.561v-6.153l-1.508-.335a28.838,28.838,0,0,0-5.128-.324c-3.169,0-3.79.077-4.982.551-3.484,1.383-5.137,3.739-5.11,7.282.025,3.317,1.775,5.387,6.13,7.248,2.57,1.1,3.6,1.935,3.6,2.923,0,2.1-3.5,2.359-7.2.532l-2.026-1a13.61,13.61,0,0,0-.181,3.193c0,3.269,0,3.285.6,3.51A23.609,23.609,0,0,0,855.8,1022.068Zm53.419-3.033v-2.775h-8.446V997.195h-7.481v24.616h15.928v-2.775ZM883.154,970.4a71.069,71.069,0,0,0,17.908-3.128c4.885-1.633,7.77-3.609,8.416-5.764a2.5,2.5,0,0,0-.117-2.055c-1.558-4.081-10.264-7.215-23.566-8.487a120.14,120.14,0,0,0-21.464.365c-8.279,1.119-15,3.2-17.984,5.562-6.043,4.785.347,10.048,15.209,12.526a100.1,100.1,0,0,0,21.6.981Z" transform="translate(-830.906 -943.984)" fill="#00bcf2"/>
</svg>
